<svg width="129" height="168" viewBox="0 0 129 168" fill="none" xmlns="http://www.w3.org/2000/svg">
<path id="Union" fill-rule="evenodd" clip-rule="evenodd" d="M61.5186 190.215L128.648 120.588L104.101 31.4491L9.20935 0.0774866L-60.9066 70.5391L-34.7313 165.594L61.5186 190.215ZM-45.4752 115.18L-32.739 161.43L-5.69595 134.254L-18.5899 87.43L-45.4752 115.18ZM-46.4077 111.793L-57.5228 71.4288L-30.4797 44.2524L-19.5224 84.0436L-46.4077 111.793ZM-17.0783 81.5209L-28.0213 41.7818L8.85571 4.72309L19.5835 43.6806L-17.0783 81.5209ZM22.5053 42.8927L11.8316 4.13169L61.9025 20.6853L71.9289 57.096L22.5053 42.8927ZM72.8705 60.5153L23.4468 46.3119L36.5613 93.9365L85.5108 107.286L85.6962 107.092L72.8705 60.5153ZM75.3375 58.0756L65.3556 21.8269L101.614 33.814L111.127 68.3608L75.3375 58.0756ZM112.069 71.78L76.279 61.4948L89.0687 107.94L88.8294 108.191L124.796 118L112.069 71.78ZM20.516 47.0671L-16.1457 84.9073L-3.23748 131.783L33.6395 94.7245L20.516 47.0671ZM-0.756483 133.58L35.7828 96.8608L83.137 109.775L48.4358 146.164L-0.756483 133.58ZM51.7973 147.024L86.4555 110.68L124.098 120.946L89.6268 156.701L51.7973 147.024ZM87.2111 159.206L49.4027 149.535L22.987 177.235L60.5624 186.847L87.2111 159.206ZM19.6255 176.375L46.0412 148.675L-3.23408 136.07L-30.5654 163.536L19.6255 176.375Z" fill="url(#paint0_linear_8_10)"/>
<defs>
<linearGradient id="paint0_linear_8_10" x1="130.705" y1="118.979" x2="-63.321" y2="65.7536" gradientUnits="userSpaceOnUse">
<stop stop-color="white"/>
<stop offset="1" stop-color="#3C3C3C"/>
</linearGradient>
</defs>
</svg>
